# Blender v3.0.1 OBJ File: ''
# www.blender.org
mtllib Ancient_Plate.mtl
o Circle
v -0.000000 0.080015 -1.084073
v -0.135870 0.080015 -1.075525
v -0.269598 0.080015 -1.050015
v -0.399074 0.080015 -1.007946
v -0.522256 0.080015 -0.949980
v -0.637202 0.080015 -0.877033
v -0.742099 0.080015 -0.790255
v -0.835293 0.080015 -0.691014
v -0.915313 0.080015 -0.580875
v -0.980899 0.080015 -0.461576
v -1.031015 0.080015 -0.334997
v -1.064871 0.080015 -0.203135
v -1.081934 0.080015 -0.068069
v -1.081934 0.080015 0.068069
v -1.064871 0.080015 0.203135
v -1.031015 0.080015 0.334997
v -0.980898 0.080015 0.461576
v -0.915313 0.080015 0.580875
v -0.835293 0.080015 0.691014
v -0.742099 0.080015 0.790255
v -0.637202 0.080015 0.877034
v -0.522256 0.080015 0.949980
v -0.399074 0.080015 1.007946
v -0.269598 0.080015 1.050015
v -0.135870 0.080015 1.075525
v 0.000000 0.080015 1.084073
v 0.135870 0.080015 1.075525
v 0.269598 0.080015 1.050015
v 0.399074 0.080015 1.007946
v 0.522256 0.080015 0.949980
v 0.637202 0.080015 0.877033
v 0.742099 0.080015 0.790255
v 0.835293 0.080015 0.691014
v 0.915313 0.080015 0.580876
v 0.980898 0.080015 0.461576
v 1.031015 0.080015 0.334997
v 1.064871 0.080015 0.203135
v 1.081934 0.080015 0.068070
v 1.081934 0.080015 -0.068070
v 1.064871 0.080015 -0.203135
v 1.031015 0.080015 -0.334997
v 0.980898 0.080015 -0.461576
v 0.915313 0.080015 -0.580875
v 0.835293 0.080015 -0.691014
v 0.742099 0.080015 -0.790255
v 0.637202 0.080015 -0.877033
v 0.522256 0.080015 -0.949980
v 0.399074 0.080015 -1.007946
v 0.269598 0.080015 -1.050015
v 0.135870 0.080015 -1.075525
v -0.000000 0.148922 -1.147776
v -0.143854 0.148922 -1.138726
v -0.285440 0.148922 -1.111717
v -0.422525 0.148922 -1.067175
v -0.552945 0.148922 -1.005804
v -0.674646 0.148922 -0.928570
v -0.785707 0.148922 -0.836693
v -0.884377 0.148922 -0.731620
v -0.969099 0.148922 -0.615009
v -1.038539 0.148922 -0.488699
v -1.091600 0.148922 -0.354682
v -1.127446 0.148922 -0.215072
v -1.145511 0.148922 -0.072069
v -1.145511 0.148922 0.072069
v -1.127446 0.148922 0.215072
v -1.091600 0.148922 0.354682
v -1.038539 0.148922 0.488699
v -0.969099 0.148922 0.615009
v -0.884377 0.148922 0.731620
v -0.785707 0.148922 0.836693
v -0.674646 0.148922 0.928570
v -0.552945 0.148922 1.005804
v -0.422525 0.148922 1.067175
v -0.285440 0.148922 1.111717
v -0.143854 0.148922 1.138726
v 0.000000 0.148922 1.147776
v 0.143854 0.148922 1.138726
v 0.285440 0.148922 1.111717
v 0.422525 0.148922 1.067175
v 0.552945 0.148922 1.005804
v 0.674646 0.148922 0.928570
v 0.785707 0.148922 0.836693
v 0.884377 0.148922 0.731620
v 0.969099 0.148922 0.615009
v 1.038539 0.148922 0.488699
v 1.091600 0.148922 0.354682
v 1.127446 0.148922 0.215072
v 1.145511 0.148922 0.072069
v 1.145511 0.148922 -0.072070
v 1.127446 0.148922 -0.215072
v 1.091600 0.148922 -0.354682
v 1.038539 0.148922 -0.488699
v 0.969100 0.148922 -0.615009
v 0.884377 0.148922 -0.731620
v 0.785707 0.148922 -0.836693
v 0.674646 0.148922 -0.928570
v 0.552945 0.148922 -1.005804
v 0.422525 0.148922 -1.067175
v 0.285440 0.148922 -1.111717
v 0.143854 0.148922 -1.138726
v -0.000000 0.033135 -1.034815
v -0.000000 0.000000 -0.951892
v -0.119304 0.000000 -0.944386
v -0.129697 0.033135 -1.026655
v -0.236726 0.000000 -0.921987
v -0.257348 0.033135 -1.002304
v -0.350415 0.000000 -0.885047
v -0.380941 0.033135 -0.962147
v -0.458578 0.000000 -0.834150
v -0.498526 0.033135 -0.906815
v -0.559508 0.000000 -0.770097
v -0.608249 0.033135 -0.837183
v -0.651615 0.000000 -0.693900
v -0.708380 0.033135 -0.754348
v -0.733446 0.000000 -0.606759
v -0.797339 0.033135 -0.659616
v -0.803709 0.000000 -0.510049
v -0.873723 0.033135 -0.554482
v -0.861298 0.000000 -0.405296
v -0.936329 0.033135 -0.440603
v -0.905303 0.000000 -0.294151
v -0.984168 0.033135 -0.319775
v -0.935032 0.000000 -0.178367
v -1.016486 0.033135 -0.193905
v -0.950014 0.000000 -0.059770
v -1.032773 0.033135 -0.064977
v -0.950014 0.000000 0.059770
v -1.032773 0.033135 0.064977
v -0.935032 0.000000 0.178367
v -1.016486 0.033135 0.193905
v -0.905303 0.000000 0.294151
v -0.984168 0.033135 0.319775
v -0.861298 0.000000 0.405296
v -0.936329 0.033135 0.440603
v -0.803709 0.000000 0.510050
v -0.873723 0.033135 0.554482
v -0.733445 0.000000 0.606759
v -0.797339 0.033135 0.659616
v -0.651615 0.000000 0.693900
v -0.708380 0.033135 0.754348
v -0.559508 0.000000 0.770097
v -0.608249 0.033135 0.837183
v -0.458577 0.000000 0.834150
v -0.498526 0.033135 0.906815
v -0.350415 0.000000 0.885047
v -0.380941 0.033135 0.962147
v -0.236726 0.000000 0.921987
v -0.257348 0.033135 1.002304
v -0.119303 0.000000 0.944386
v -0.129697 0.033135 1.026655
v 0.000000 0.000000 0.951892
v 0.000000 0.033135 1.034815
v 0.119303 0.000000 0.944386
v 0.129697 0.033135 1.026655
v 0.236726 0.000000 0.921987
v 0.257348 0.033135 1.002304
v 0.350415 0.000000 0.885047
v 0.380941 0.033135 0.962147
v 0.458578 0.000000 0.834150
v 0.498526 0.033135 0.906815
v 0.559508 0.000000 0.770097
v 0.608249 0.033135 0.837183
v 0.651615 0.000000 0.693900
v 0.708380 0.033135 0.754348
v 0.733446 0.000000 0.606759
v 0.797339 0.033135 0.659616
v 0.803709 0.000000 0.510050
v 0.873723 0.033135 0.554482
v 0.861298 0.000000 0.405296
v 0.936329 0.033135 0.440603
v 0.905303 0.000000 0.294151
v 0.984168 0.033135 0.319776
v 0.935032 0.000000 0.178367
v 1.016486 0.033135 0.193905
v 0.950014 0.000000 0.059770
v 1.032773 0.033135 0.064977
v 0.950014 0.000000 -0.059770
v 1.032773 0.033135 -0.064977
v 0.935032 0.000000 -0.178367
v 1.016486 0.033135 -0.193905
v 0.905303 0.000000 -0.294151
v 0.984168 0.033135 -0.319776
v 0.861298 0.000000 -0.405296
v 0.936329 0.033135 -0.440603
v 0.803709 0.000000 -0.510049
v 0.873723 0.033135 -0.554481
v 0.733446 0.000000 -0.606759
v 0.797339 0.033135 -0.659616
v 0.651615 0.000000 -0.693900
v 0.708380 0.033135 -0.754348
v 0.559508 0.000000 -0.770097
v 0.608249 0.033135 -0.837183
v 0.458577 0.000000 -0.834150
v 0.498526 0.033135 -0.906815
v 0.350415 0.000000 -0.885047
v 0.380941 0.033135 -0.962147
v 0.236726 0.000000 -0.921987
v 0.257348 0.033135 -1.002304
v 0.119303 0.000000 -0.944386
v 0.129697 0.033135 -1.026655
v -0.000000 0.177276 -1.158670
v -0.145220 0.177276 -1.149534
v -0.288150 0.177276 -1.122269
v -0.426535 0.177276 -1.077304
v -0.558194 0.177276 -1.015351
v -0.681049 0.177276 -0.937384
v -0.793165 0.177276 -0.844634
v -0.892771 0.177276 -0.738564
v -0.978298 0.177276 -0.620847
v -1.048396 0.177276 -0.493338
v -1.101961 0.177276 -0.358049
v -1.138147 0.177276 -0.217113
v -1.156384 0.177276 -0.072753
v -1.156384 0.177276 0.072753
v -1.138147 0.177276 0.217113
v -1.101961 0.177276 0.358049
v -1.048396 0.177276 0.493338
v -0.978298 0.177276 0.620847
v -0.892771 0.177276 0.738564
v -0.793164 0.177276 0.844634
v -0.681049 0.177276 0.937384
v -0.558194 0.177276 1.015351
v -0.426535 0.177276 1.077304
v -0.288150 0.177276 1.122269
v -0.145220 0.177276 1.149534
v 0.000000 0.177276 1.158670
v 0.145220 0.177276 1.149534
v 0.288150 0.177276 1.122269
v 0.426535 0.177276 1.077304
v 0.558194 0.177276 1.015351
v 0.681049 0.177276 0.937384
v 0.793164 0.177276 0.844635
v 0.892771 0.177276 0.738564
v 0.978298 0.177276 0.620847
v 1.048396 0.177276 0.493338
v 1.101961 0.177276 0.358049
v 1.138147 0.177276 0.217113
v 1.156384 0.177276 0.072754
v 1.156384 0.177276 -0.072754
v 1.138147 0.177276 -0.217113
v 1.101961 0.177276 -0.358049
v 1.048396 0.177276 -0.493338
v 0.978298 0.177276 -0.620847
v 0.892771 0.177276 -0.738564
v 0.793165 0.177276 -0.844634
v 0.681049 0.177276 -0.937384
v 0.558194 0.177276 -1.015351
v 0.426535 0.177276 -1.077304
v 0.288150 0.177276 -1.122269
v 0.145220 0.177276 -1.149534
v -0.000000 0.094042 -1.069817
v -0.134084 0.094042 -1.061381
v -0.266053 0.094042 -1.036206
v -0.393826 0.094042 -0.994690
v -0.515388 0.094042 -0.937487
v -0.628822 0.094042 -0.865500
v -0.732340 0.094042 -0.779862
v -0.824308 0.094042 -0.681927
v -0.903276 0.094042 -0.573236
v -0.967999 0.094042 -0.455506
v -1.017456 0.094042 -0.330592
v -1.050867 0.094042 -0.200464
v -1.067705 0.094042 -0.067175
v -1.067705 0.094042 0.067175
v -1.050867 0.094042 0.200464
v -1.017456 0.094042 0.330592
v -0.967999 0.094042 0.455506
v -0.903276 0.094042 0.573236
v -0.824308 0.094042 0.681927
v -0.732340 0.094042 0.779862
v -0.628822 0.094042 0.865500
v -0.515388 0.094042 0.937487
v -0.393826 0.094042 0.994690
v -0.266053 0.094042 1.036206
v -0.134084 0.094042 1.061381
v 0.000000 0.094042 1.069817
v 0.134084 0.094042 1.061381
v 0.266053 0.094042 1.036206
v 0.393826 0.094042 0.994690
v 0.515388 0.094042 0.937487
v 0.628822 0.094042 0.865500
v 0.732340 0.094042 0.779862
v 0.824308 0.094042 0.681927
v 0.903276 0.094042 0.573237
v 0.967999 0.094042 0.455506
v 1.017456 0.094042 0.330592
v 1.050867 0.094042 0.200464
v 1.067705 0.094042 0.067175
v 1.067705 0.094042 -0.067175
v 1.050867 0.094042 -0.200464
v 1.017456 0.094042 -0.330592
v 0.967999 0.094042 -0.455506
v 0.903276 0.094042 -0.573236
v 0.824308 0.094042 -0.681927
v 0.732340 0.094042 -0.779862
v 0.628822 0.094042 -0.865500
v 0.515388 0.094042 -0.937487
v 0.393826 0.094042 -0.994690
v 0.266053 0.094042 -1.036206
v 0.134084 0.094042 -1.061381
v -0.000000 0.159419 -1.130753
v -0.141721 0.159419 -1.121837
v -0.281207 0.159419 -1.095228
v -0.416258 0.159419 -1.051347
v -0.544744 0.159419 -0.990886
v -0.664640 0.159419 -0.914798
v -0.774054 0.159419 -0.824283
v -0.871260 0.159419 -0.720769
v -0.954726 0.159419 -0.605888
v -1.023136 0.159419 -0.481451
v -1.075410 0.159419 -0.349422
v -1.110724 0.159419 -0.211882
v -1.128521 0.159419 -0.071001
v -1.128521 0.159419 0.071001
v -1.110724 0.159419 0.211882
v -1.075410 0.159419 0.349422
v -1.023136 0.159419 0.481451
v -0.954726 0.159419 0.605888
v -0.871260 0.159419 0.720769
v -0.774054 0.159419 0.824283
v -0.664640 0.159419 0.914798
v -0.544745 0.159419 0.990886
v -0.416258 0.159419 1.051347
v -0.281207 0.159419 1.095228
v -0.141721 0.159419 1.121837
v 0.000000 0.159419 1.130753
v 0.141721 0.159419 1.121837
v 0.281207 0.159419 1.095228
v 0.416258 0.159419 1.051347
v 0.544744 0.159419 0.990886
v 0.664640 0.159419 0.914798
v 0.774054 0.159419 0.824283
v 0.871260 0.159419 0.720769
v 0.954726 0.159419 0.605888
v 1.023136 0.159419 0.481451
v 1.075410 0.159419 0.349422
v 1.110724 0.159419 0.211882
v 1.128521 0.159419 0.071001
v 1.128521 0.159419 -0.071001
v 1.110724 0.159419 -0.211882
v 1.075410 0.159419 -0.349422
v 1.023136 0.159419 -0.481451
v 0.954727 0.159419 -0.605888
v 0.871260 0.159419 -0.720769
v 0.774054 0.159419 -0.824283
v 0.664640 0.159419 -0.914798
v 0.544744 0.159419 -0.990886
v 0.416258 0.159419 -1.051347
v 0.281207 0.159419 -1.095228
v 0.141721 0.159419 -1.121837
v -0.000000 0.049899 -1.023910
v -0.000000 0.019611 -0.947969
v -0.118812 0.019611 -0.940493
v -0.128330 0.049899 -1.015836
v -0.235751 0.019611 -0.918187
v -0.254636 0.049899 -0.991741
v -0.348971 0.019611 -0.881399
v -0.376926 0.049899 -0.952007
v -0.456687 0.019611 -0.830711
v -0.493273 0.049899 -0.897259
v -0.557202 0.019611 -0.766922
v -0.601839 0.049899 -0.828360
v -0.648929 0.019611 -0.691040
v -0.700914 0.049899 -0.746398
v -0.730423 0.019611 -0.604258
v -0.788936 0.049899 -0.652664
v -0.800396 0.019611 -0.507947
v -0.864515 0.049899 -0.548638
v -0.857747 0.019611 -0.403626
v -0.926461 0.049899 -0.435960
v -0.901572 0.019611 -0.292938
v -0.973796 0.049899 -0.316406
v -0.931178 0.019611 -0.177632
v -1.005773 0.049899 -0.191862
v -0.946098 0.019611 -0.059524
v -1.021889 0.049899 -0.064292
v -0.946098 0.019611 0.059524
v -1.021889 0.049899 0.064292
v -0.931178 0.019611 0.177632
v -1.005773 0.049899 0.191861
v -0.901572 0.019611 0.292939
v -0.973796 0.049899 0.316406
v -0.857747 0.019611 0.403625
v -0.926461 0.049899 0.435960
v -0.800396 0.019611 0.507948
v -0.864515 0.049899 0.548638
v -0.730422 0.019611 0.604258
v -0.788936 0.049899 0.652664
v -0.648930 0.019611 0.691039
v -0.700914 0.049899 0.746398
v -0.557202 0.019611 0.766922
v -0.601839 0.049899 0.828360
v -0.456687 0.019611 0.830711
v -0.493273 0.049899 0.897259
v -0.348971 0.019611 0.881399
v -0.376926 0.049899 0.952007
v -0.235751 0.019611 0.918187
v -0.254636 0.049899 0.991741
v -0.118812 0.019611 0.940493
v -0.128330 0.049899 1.015836
v 0.000000 0.019611 0.947969
v 0.000000 0.049899 1.023910
v 0.118812 0.019611 0.940493
v 0.128330 0.049899 1.015836
v 0.235751 0.019611 0.918187
v 0.254636 0.049899 0.991741
v 0.348971 0.019611 0.881399
v 0.376926 0.049899 0.952007
v 0.456687 0.019611 0.830711
v 0.493273 0.049899 0.897259
v 0.557202 0.019611 0.766923
v 0.601839 0.049899 0.828360
v 0.648930 0.019611 0.691039
v 0.700914 0.049899 0.746398
v 0.730423 0.019611 0.604258
v 0.788936 0.049899 0.652664
v 0.800396 0.019611 0.507948
v 0.864515 0.049899 0.548639
v 0.857747 0.019611 0.403625
v 0.926461 0.049899 0.435960
v 0.901572 0.019611 0.292939
v 0.973796 0.049899 0.316406
v 0.931178 0.019611 0.177632
v 1.005773 0.049899 0.191862
v 0.946098 0.019611 0.059524
v 1.021889 0.049899 0.064292
v 0.946098 0.019611 -0.059524
v 1.021889 0.049899 -0.064292
v 0.931178 0.019611 -0.177632
v 1.005773 0.049899 -0.191862
v 0.901572 0.019611 -0.292939
v 0.973796 0.049899 -0.316406
v 0.857747 0.019611 -0.403626
v 0.926461 0.049899 -0.435960
v 0.800396 0.019611 -0.507947
v 0.864515 0.049899 -0.548638
v 0.730423 0.019611 -0.604258
v 0.788936 0.049899 -0.652664
v 0.648929 0.019611 -0.691039
v 0.700914 0.049899 -0.746398
v 0.557202 0.019611 -0.766922
v 0.601839 0.049899 -0.828360
v 0.456687 0.019611 -0.830711
v 0.493273 0.049899 -0.897259
v 0.348971 0.019611 -0.881399
v 0.376926 0.049899 -0.952007
v 0.235751 0.019611 -0.918187
v 0.254636 0.049899 -0.991741
v 0.118812 0.019611 -0.940493
v 0.128330 0.049899 -1.015836
v -0.000000 0.184449 -1.140002
v -0.142880 0.184449 -1.131012
v -0.283507 0.184449 -1.104186
v -0.419663 0.184449 -1.059947
v -0.549200 0.184449 -0.998991
v -0.670076 0.184449 -0.922280
v -0.780385 0.184449 -0.831026
v -0.878386 0.184449 -0.726665
v -0.962535 0.184449 -0.610843
v -1.031505 0.184449 -0.485389
v -1.084206 0.184449 -0.352280
v -1.119809 0.184449 -0.213615
v -1.137752 0.184449 -0.071582
v -1.137752 0.184449 0.071582
v -1.119809 0.184449 0.213615
v -1.084206 0.184449 0.352280
v -1.031504 0.184449 0.485389
v -0.962535 0.184449 0.610843
v -0.878386 0.184449 0.726665
v -0.780385 0.184449 0.831026
v -0.670076 0.184449 0.922281
v -0.549200 0.184449 0.998991
v -0.419663 0.184449 1.059947
v -0.283507 0.184449 1.104186
v -0.142880 0.184449 1.131012
v 0.000000 0.184449 1.140002
v 0.142880 0.184449 1.131012
v 0.283507 0.184449 1.104186
v 0.419663 0.184449 1.059947
v 0.549200 0.184449 0.998991
v 0.670076 0.184449 0.922280
v 0.780385 0.184449 0.831026
v 0.878386 0.184449 0.726664
v 0.962535 0.184449 0.610844
v 1.031504 0.184449 0.485389
v 1.084206 0.184449 0.352280
v 1.119809 0.184449 0.213615
v 1.137752 0.184449 0.071582
v 1.137752 0.184449 -0.071582
v 1.119809 0.184449 -0.213615
v 1.084206 0.184449 -0.352280
v 1.031504 0.184449 -0.485389
v 0.962535 0.184449 -0.610843
v 0.878386 0.184449 -0.726664
v 0.780385 0.184449 -0.831026
v 0.670076 0.184449 -0.922280
v 0.549200 0.184449 -0.998991
v 0.419663 0.184449 -1.059947
v 0.283507 0.184449 -1.104186
v 0.142880 0.184449 -1.131012
vt 0.702885 0.505815
vt 0.675228 0.503010
vt 0.672529 0.519322
vt 0.702252 0.522338
vt 0.604804 0.071909
vt 0.632303 0.060232
vt 0.627657 0.047047
vt 0.598542 0.059410
vt 0.574483 0.458592
vt 0.553757 0.440066
vt 0.541985 0.451677
vt 0.564260 0.471587
vt 0.887190 0.150139
vt 0.902658 0.173237
vt 0.916947 0.164918
vt 0.900324 0.140094
vt 0.566103 0.117567
vt 0.588185 0.100679
vt 0.578985 0.086941
vt 0.555254 0.105089
vt 0.810497 0.482534
vt 0.784909 0.493399
vt 0.790404 0.508994
vt 0.817903 0.497317
vt 0.535516 0.419088
vt 0.522382 0.429132
vt 0.915108 0.198092
vt 0.930328 0.191630
vt 0.612209 0.086693
vt 0.758162 0.500972
vt 0.761658 0.517133
vt 0.520049 0.395989
vt 0.505759 0.404308
vt 0.924345 0.224312
vt 0.940255 0.219807
vt 0.637797 0.075827
vt 0.730676 0.505132
vt 0.732119 0.521604
vt 0.507598 0.371134
vt 0.492379 0.377597
vt 0.930224 0.251482
vt 0.946572 0.249007
vt 0.664545 0.068255
vt 0.661048 0.052094
vt 0.498361 0.344915
vt 0.482451 0.349419
vt 0.932650 0.279175
vt 0.949180 0.278769
vt 0.692031 0.064094
vt 0.690587 0.047623
vt 0.492483 0.317744
vt 0.476134 0.320219
vt 0.931587 0.306954
vt 0.948037 0.308623
vt 0.719821 0.063411
vt 0.720454 0.046889
vt 0.648140 0.496760
vt 0.622050 0.487164
vt 0.615379 0.502294
vt 0.643419 0.512606
vt 0.490056 0.290051
vt 0.473526 0.290457
vt 0.927050 0.334380
vt 0.943162 0.338098
vt 0.747479 0.066217
vt 0.750177 0.049904
vt 0.491120 0.262272
vt 0.474669 0.260603
vt 0.919112 0.361022
vt 0.934630 0.366730
vt 0.774566 0.072467
vt 0.779288 0.056620
vt 0.495656 0.234846
vt 0.479545 0.231128
vt 0.907897 0.386459
vt 0.922578 0.394066
vt 0.800657 0.082062
vt 0.807327 0.066933
vt 0.503594 0.208204
vt 0.488076 0.202497
vt 0.893583 0.410289
vt 0.907194 0.419676
vt 0.825339 0.094852
vt 0.833853 0.080678
vt 0.514809 0.182768
vt 0.500129 0.175160
vt 0.876394 0.432137
vt 0.888722 0.443157
vt 0.653206 0.479760
vt 0.678123 0.485509
vt 0.703563 0.488090
vt 0.729127 0.487461
vt 0.754411 0.483634
vt 0.779015 0.476668
vt 0.802553 0.466674
vt 0.824652 0.453808
vt 0.844964 0.438273
vt 0.863169 0.420316
vt 0.878980 0.400218
vt 0.892147 0.378297
vt 0.902464 0.354899
vt 0.909766 0.330392
vt 0.913939 0.305164
vt 0.914917 0.279611
vt 0.912685 0.254137
vt 0.907278 0.229144
vt 0.898781 0.205025
vt 0.887328 0.182162
vt 0.873100 0.160914
vt 0.856321 0.141618
vt 0.837255 0.124576
vt 0.816205 0.110058
vt 0.793500 0.098293
vt 0.769501 0.089467
vt 0.744584 0.083718
vt 0.719143 0.081137
vt 0.693579 0.081765
vt 0.668296 0.085592
vt 0.643691 0.092558
vt 0.620154 0.102553
vt 0.598055 0.115419
vt 0.577742 0.130953
vt 0.559537 0.148910
vt 0.543726 0.169008
vt 0.530559 0.190929
vt 0.520243 0.214327
vt 0.512941 0.238834
vt 0.508767 0.264062
vt 0.507789 0.289615
vt 0.510021 0.315089
vt 0.515429 0.340083
vt 0.523926 0.364201
vt 0.535378 0.387064
vt 0.549607 0.408312
vt 0.566386 0.427609
vt 0.585451 0.444650
vt 0.606502 0.459168
vt 0.629206 0.470933
vt 0.848223 0.110634
vt 0.858447 0.097639
vt 0.529124 0.158937
vt 0.515512 0.149550
vt 0.856603 0.451659
vt 0.867453 0.464137
vt 0.597368 0.474374
vt 0.588853 0.488549
vt 0.868949 0.129161
vt 0.880721 0.117549
vt 0.546312 0.137089
vt 0.533984 0.126070
vt 0.834522 0.468547
vt 0.843722 0.482286
vt 0.733339 0.535530
vt 0.764614 0.530796
vt 0.479511 0.383061
vt 0.493678 0.411342
vt 0.960394 0.246915
vt 0.953706 0.215999
vt 0.658092 0.038430
vt 0.701718 0.536307
vt 0.469001 0.353227
vt 0.963155 0.278426
vt 0.689367 0.033696
vt 0.670248 0.533115
vt 0.462312 0.322311
vt 0.961945 0.310034
vt 0.720989 0.032919
vt 0.459551 0.290800
vt 0.956783 0.341241
vt 0.752458 0.036111
vt 0.460761 0.259193
vt 0.947751 0.371555
vt 0.783280 0.043223
vt 0.465923 0.227986
vt 0.934990 0.400498
vt 0.812967 0.054141
vt 0.474956 0.197671
vt 0.918702 0.427613
vt 0.639427 0.526003
vt 0.841051 0.068694
vt 0.487716 0.168729
vt 0.899145 0.452473
vt 0.609740 0.515085
vt 0.867091 0.086652
vt 0.504004 0.141613
vt 0.876625 0.474686
vt 0.581655 0.500532
vt 0.890673 0.107732
vt 0.523562 0.116753
vt 0.851500 0.493902
vt 0.555616 0.482574
vt 0.911429 0.131602
vt 0.546081 0.094540
vt 0.824164 0.509816
vt 0.532033 0.461494
vt 0.929028 0.157884
vt 0.571207 0.075325
vt 0.795049 0.522180
vt 0.511278 0.437625
vt 0.943195 0.186165
vt 0.474428 0.161843
vt 0.460909 0.192506
vt 0.910303 0.462447
vt 0.931023 0.436110
vt 0.603702 0.528780
vt 0.635153 0.540347
vt 0.876344 0.074890
vt 0.848758 0.055864
vt 0.491684 0.133116
vt 0.886446 0.485980
vt 0.573948 0.513362
vt 0.901328 0.097222
vt 0.512403 0.106779
vt 0.859827 0.506337
vt 0.546362 0.494337
vt 0.923317 0.122510
vt 0.536261 0.083246
vt 0.830867 0.523197
vt 0.521378 0.472004
vt 0.941962 0.150354
vt 0.562879 0.062889
vt 0.800022 0.536295
vt 0.499389 0.446716
vt 0.956971 0.180316
vt 0.591839 0.046029
vt 0.767779 0.545424
vt 0.480744 0.418872
vt 0.968106 0.211922
vt 0.622684 0.032931
vt 0.734646 0.550439
vt 0.465735 0.388910
vt 0.975192 0.244675
vt 0.654927 0.023802
vt 0.701145 0.551262
vt 0.454600 0.357304
vt 0.978117 0.278058
vt 0.688061 0.018787
vt 0.667806 0.547880
vt 0.447514 0.324551
vt 0.976835 0.311544
vt 0.721561 0.017964
vt 0.444589 0.291168
vt 0.971366 0.344605
vt 0.754901 0.021346
vt 0.445871 0.257682
vt 0.961797 0.376721
vt 0.787554 0.028880
vt 0.451340 0.224621
vt 0.948278 0.407383
vt 0.819005 0.040447
vt 0.288831 0.903158
vt 0.288145 0.921069
vt 0.261095 0.918325
vt 0.264020 0.900641
vt 0.199458 0.511139
vt 0.190024 0.492306
vt 0.217486 0.480645
vt 0.224485 0.500512
vt 0.173642 0.860794
vt 0.162559 0.874881
vt 0.142288 0.856761
vt 0.155049 0.844174
vt 0.454170 0.584082
vt 0.468408 0.573193
vt 0.483536 0.595785
vt 0.468046 0.604804
vt 0.166124 0.554862
vt 0.154363 0.541336
vt 0.175961 0.524819
vt 0.185934 0.539712
vt 0.385370 0.882272
vt 0.393397 0.898298
vt 0.368371 0.908925
vt 0.362415 0.892020
vt 0.124447 0.836244
vt 0.138685 0.825355
vt 0.495714 0.620095
vt 0.479216 0.627101
vt 0.207486 0.527165
vt 0.342210 0.916331
vt 0.338419 0.898813
vt 0.109319 0.813652
vt 0.124809 0.804633
vt 0.504748 0.645740
vt 0.487502 0.650622
vt 0.230440 0.517418
vt 0.315326 0.920401
vt 0.313762 0.902545
vt 0.097142 0.789342
vt 0.113640 0.782336
vt 0.510498 0.672314
vt 0.492776 0.674997
vt 0.250646 0.493106
vt 0.254436 0.510624
vt 0.088107 0.763697
vt 0.105353 0.758815
vt 0.512871 0.699400
vt 0.494953 0.699840
vt 0.277529 0.489036
vt 0.279093 0.506892
vt 0.082358 0.737123
vt 0.100080 0.734440
vt 0.511831 0.726569
vt 0.493999 0.724760
vt 0.304710 0.488368
vt 0.304024 0.506279
vt 0.239720 0.895034
vt 0.234601 0.912212
vt 0.209083 0.902827
vt 0.216314 0.886426
vt 0.079984 0.710037
vt 0.097903 0.709597
vt 0.507394 0.753394
vt 0.489929 0.749365
vt 0.331761 0.491112
vt 0.328836 0.508796
vt 0.081024 0.682868
vt 0.098857 0.684677
vt 0.499629 0.779451
vt 0.482807 0.773265
vt 0.358254 0.497225
vt 0.353136 0.514403
vt 0.085462 0.656043
vt 0.102927 0.660072
vt 0.488661 0.804330
vt 0.472746 0.796084
vt 0.383773 0.506610
vt 0.376541 0.523011
vt 0.093226 0.629985
vt 0.110048 0.636172
vt 0.474660 0.827638
vt 0.459905 0.817462
vt 0.407913 0.519120
vt 0.398684 0.534484
vt 0.104195 0.605107
vt 0.120109 0.613353
vt 0.457849 0.849007
vt 0.444486 0.837062
vt 0.245805 0.874613
vt 0.224910 0.866928
vt 0.205144 0.856686
vt 0.186817 0.844046
vt 0.170219 0.829210
vt 0.155611 0.812410
vt 0.143225 0.793912
vt 0.133254 0.774007
vt 0.125856 0.753010
vt 0.121149 0.731251
vt 0.119205 0.709073
vt 0.120057 0.686827
vt 0.123690 0.664863
vt 0.130047 0.643528
vt 0.139029 0.623157
vt 0.150492 0.604073
vt 0.164257 0.586576
vt 0.180107 0.570942
vt 0.197790 0.557418
vt 0.217030 0.546217
vt 0.237521 0.537516
vt 0.258942 0.531451
vt 0.280953 0.528119
vt 0.303209 0.527572
vt 0.325358 0.529819
vt 0.347051 0.534824
vt 0.367945 0.542509
vt 0.387711 0.552751
vt 0.406038 0.565390
vt 0.422636 0.580227
vt 0.437244 0.597027
vt 0.449631 0.615525
vt 0.459602 0.635429
vt 0.466999 0.656427
vt 0.471707 0.678186
vt 0.473650 0.700364
vt 0.472798 0.722610
vt 0.469165 0.744574
vt 0.462808 0.765909
vt 0.453827 0.786280
vt 0.442363 0.805364
vt 0.428598 0.822861
vt 0.412749 0.838495
vt 0.395065 0.852019
vt 0.375826 0.863220
vt 0.355334 0.871921
vt 0.333914 0.877986
vt 0.311902 0.881318
vt 0.289646 0.881864
vt 0.267497 0.879618
vt 0.430296 0.534556
vt 0.419214 0.548643
vt 0.118195 0.581799
vt 0.132950 0.591975
vt 0.438492 0.868101
vt 0.426731 0.854575
vt 0.184942 0.890317
vt 0.194172 0.874953
vt 0.450567 0.552676
vt 0.437807 0.565263
vt 0.135006 0.560430
vt 0.148370 0.572375
vt 0.416895 0.884618
vt 0.406922 0.869725
vt 0.346664 0.936919
vt 0.317165 0.941384
vt 0.091116 0.824249
vt 0.077754 0.797575
vt 0.525015 0.640002
vt 0.531324 0.669162
vt 0.246192 0.472518
vt 0.287339 0.942117
vt 0.067840 0.769435
vt 0.533928 0.698882
vt 0.275690 0.468053
vt 0.257657 0.939106
vt 0.061531 0.740275
vt 0.532787 0.728695
vt 0.305516 0.467320
vt 0.058927 0.710554
vt 0.527918 0.758130
vt 0.335198 0.470331
vt 0.060068 0.680742
vt 0.519399 0.786722
vt 0.364269 0.477039
vt 0.064937 0.651307
vt 0.507363 0.814021
vt 0.392270 0.487337
vt 0.073457 0.622715
vt 0.492000 0.839596
vt 0.228586 0.932398
vt 0.418759 0.501063
vt 0.085493 0.595416
vt 0.473553 0.863045
vt 0.200586 0.922100
vt 0.443320 0.518001
vt 0.100855 0.569841
vt 0.452313 0.883996
vt 0.174096 0.908374
vt 0.465563 0.537884
vt 0.119302 0.546392
vt 0.428614 0.902120
vt 0.149536 0.891436
vt 0.485139 0.560398
vt 0.140542 0.525441
vt 0.402831 0.917130
vt 0.127292 0.871553
vt 0.501740 0.585188
vt 0.164241 0.507317
vt 0.375370 0.928792
vt 0.107716 0.849039
vt 0.515102 0.611862
vt 0.052814 0.615123
vt 0.065965 0.585297
vt 0.510106 0.852083
vt 0.489951 0.877702
vt 0.222306 0.953477
vt 0.191712 0.942225
vt 0.430085 0.482209
vt 0.456919 0.500715
vt 0.082749 0.557354
vt 0.466745 0.900593
vt 0.162771 0.927228
vt 0.481222 0.522438
vt 0.102904 0.531735
vt 0.440852 0.920395
vt 0.135937 0.908722
vt 0.502610 0.547036
vt 0.126111 0.508844
vt 0.412682 0.936795
vt 0.111634 0.886999
vt 0.520747 0.574121
vt 0.152003 0.489042
vt 0.382678 0.949536
vt 0.090245 0.862401
vt 0.535346 0.603266
vt 0.180174 0.472641
vt 0.351315 0.958416
vt 0.072108 0.835316
vt 0.546178 0.634010
vt 0.210177 0.459901
vt 0.319085 0.963295
vt 0.057509 0.806171
vt 0.553071 0.665870
vt 0.241541 0.451021
vt 0.286498 0.964095
vt 0.046677 0.775426
vt 0.555916 0.698342
vt 0.273771 0.446143
vt 0.254068 0.960805
vt 0.039785 0.743567
vt 0.554669 0.730915
vt 0.306357 0.445342
vt 0.036939 0.711095
vt 0.549349 0.763075
vt 0.338788 0.448632
vt 0.038186 0.678522
vt 0.540041 0.794314
vt 0.370550 0.455960
vt 0.043506 0.646362
vt 0.526891 0.824141
vt 0.401143 0.467211
vt 0.250018 0.971063
vt 0.216908 0.963423
vt 0.218153 0.959245
vt 0.250729 0.966761
vt 0.185018 0.951695
vt 0.186776 0.947706
vt 0.154848 0.936062
vt 0.157093 0.932324
vt 0.126876 0.916770
vt 0.129572 0.913344
vt 0.101542 0.894125
vt 0.104646 0.891064
vt 0.079246 0.868484
vt 0.082709 0.865835
vt 0.060340 0.840250
vt 0.064108 0.838057
vt 0.045122 0.809869
vt 0.049135 0.808165
vt 0.033831 0.777821
vt 0.038025 0.776634
vt 0.026646 0.744610
vt 0.030956 0.743958
vt 0.023680 0.710761
vt 0.028038 0.710654
vt 0.024980 0.676806
vt 0.029317 0.677246
vt 0.030525 0.643283
vt 0.034773 0.644263
vt 0.040228 0.610718
vt 0.044320 0.612223
vt 0.053936 0.579627
vt 0.057807 0.581632
vt 0.071433 0.550498
vt 0.075021 0.552974
vt 0.092442 0.523793
vt 0.095693 0.526698
vt 0.116633 0.499931
vt 0.119494 0.503221
vt 0.143624 0.479289
vt 0.146050 0.482911
vt 0.172989 0.462193
vt 0.174942 0.466091
vt 0.204265 0.448912
vt 0.205714 0.453024
vt 0.236959 0.439656
vt 0.237881 0.443917
vt 0.270556 0.434570
vt 0.270937 0.438913
vt 0.304525 0.433736
vt 0.304358 0.438092
vt 0.338331 0.437165
vt 0.337619 0.441466
vt 0.371440 0.444804
vt 0.370195 0.448982
vt 0.403331 0.456533
vt 0.401573 0.460522
vt 0.433500 0.472166
vt 0.431256 0.475903
vt 0.461473 0.491457
vt 0.458777 0.494884
vt 0.486806 0.514102
vt 0.483703 0.517164
vt 0.509102 0.539744
vt 0.505639 0.542392
vt 0.528008 0.567977
vt 0.524241 0.570171
vt 0.543227 0.598358
vt 0.539214 0.600062
vt 0.554518 0.630406
vt 0.550323 0.631594
vt 0.561703 0.663617
vt 0.557392 0.664270
vt 0.564669 0.697467
vt 0.560310 0.697574
vt 0.563369 0.731421
vt 0.559032 0.730981
vt 0.557824 0.764945
vt 0.553576 0.763965
vt 0.548121 0.797509
vt 0.544029 0.796005
vt 0.534413 0.828601
vt 0.530542 0.826595
vt 0.516916 0.857729
vt 0.513327 0.855254
vt 0.495906 0.884435
vt 0.492656 0.881529
vt 0.471715 0.908296
vt 0.468855 0.905007
vt 0.444725 0.928938
vt 0.442299 0.925316
vt 0.415359 0.946034
vt 0.413407 0.942136
vt 0.384083 0.959315
vt 0.382634 0.955203
vt 0.351389 0.968572
vt 0.350467 0.964311
vt 0.317792 0.973657
vt 0.317412 0.969314
vt 0.283823 0.974492
vt 0.283990 0.970136
vn 0.0683 -0.8382 -0.5410
vn 0.0000 -0.8382 -0.5453
vn 0.0000 -0.7013 -0.7128
vn 0.0893 -0.7013 -0.7072
vn -0.4190 -0.7013 0.5767
vn -0.3434 -0.7013 0.6247
vn -0.4101 -0.5249 0.7459
vn -0.5003 -0.5249 0.6886
vn -0.2627 -0.8382 -0.4778
vn -0.3205 -0.8382 -0.4412
vn -0.4190 -0.7013 -0.5767
vn -0.3434 -0.7013 -0.6247
vn 0.3733 -0.8382 0.3975
vn 0.4202 -0.8382 0.3476
vn 0.5493 -0.7013 0.4544
vn 0.4880 -0.7013 0.5196
vn -0.4202 -0.8382 0.3476
vn -0.3733 -0.8382 0.3975
vn -0.4880 -0.7013 0.5196
vn -0.5493 -0.7013 0.4544
vn 0.3205 -0.8382 -0.4412
vn 0.2627 -0.8382 -0.4778
vn 0.3434 -0.7013 -0.6247
vn 0.4190 -0.7013 -0.5767
vn -0.3733 -0.8382 -0.3975
vn -0.4880 -0.7013 -0.5196
vn 0.4604 -0.8382 0.2922
vn 0.6019 -0.7013 0.3820
vn -0.3205 -0.8382 0.4412
vn 0.2007 -0.8382 -0.5070
vn 0.2624 -0.7013 -0.6628
vn -0.4202 -0.8382 -0.3476
vn -0.5493 -0.7013 -0.4544
vn 0.4934 -0.8382 0.2322
vn 0.6450 -0.7013 0.3035
vn -0.2627 -0.8382 0.4778
vn 0.1356 -0.8382 -0.5282
vn 0.1773 -0.7013 -0.6904
vn -0.4604 -0.8382 -0.2922
vn -0.6019 -0.7013 -0.3820
vn 0.5186 -0.8382 0.1685
vn 0.6780 -0.7013 0.2203
vn -0.2007 -0.8382 0.5070
vn -0.2624 -0.7013 0.6628
vn -0.4934 -0.8382 -0.2322
vn -0.6450 -0.7013 -0.3035
vn 0.5356 -0.8382 0.1022
vn 0.7002 -0.7013 0.1336
vn -0.1356 -0.8382 0.5282
vn -0.1773 -0.7013 0.6904
vn -0.5186 -0.8382 -0.1685
vn -0.6780 -0.7013 -0.2203
vn 0.5442 -0.8382 0.0342
vn 0.7114 -0.7013 0.0448
vn -0.0683 -0.8382 0.5410
vn -0.0893 -0.7013 0.7072
vn -0.0683 -0.8382 -0.5410
vn -0.1356 -0.8382 -0.5282
vn -0.1773 -0.7013 -0.6904
vn -0.0893 -0.7013 -0.7072
vn -0.5356 -0.8382 -0.1022
vn -0.7002 -0.7013 -0.1336
vn 0.5442 -0.8382 -0.0342
vn 0.7114 -0.7013 -0.0448
vn 0.0000 -0.8382 0.5453
vn 0.0000 -0.7013 0.7128
vn -0.5442 -0.8382 -0.0342
vn -0.7114 -0.7013 -0.0448
vn 0.5356 -0.8382 -0.1022
vn 0.7002 -0.7013 -0.1336
vn 0.0683 -0.8382 0.5410
vn 0.0893 -0.7013 0.7072
vn -0.5442 -0.8382 0.0342
vn -0.7114 -0.7013 0.0448
vn 0.5186 -0.8382 -0.1685
vn 0.6780 -0.7013 -0.2203
vn 0.1356 -0.8382 0.5282
vn 0.1773 -0.7013 0.6904
vn -0.5356 -0.8382 0.1022
vn -0.7002 -0.7013 0.1336
vn 0.4934 -0.8382 -0.2322
vn 0.6450 -0.7013 -0.3035
vn 0.2007 -0.8382 0.5070
vn 0.2624 -0.7013 0.6628
vn -0.5186 -0.8382 0.1685
vn -0.6780 -0.7013 0.2203
vn 0.4604 -0.8382 -0.2922
vn 0.6019 -0.7013 -0.3820
vn -0.0246 -0.9806 -0.1947
vn 0.0000 -0.9806 -0.1962
vn 0.0246 -0.9806 -0.1947
vn 0.0488 -0.9806 -0.1900
vn 0.0722 -0.9806 -0.1824
vn 0.0945 -0.9806 -0.1719
vn 0.1153 -0.9806 -0.1587
vn 0.1343 -0.9806 -0.1430
vn 0.1512 -0.9806 -0.1251
vn 0.1657 -0.9806 -0.1051
vn 0.1775 -0.9806 -0.0835
vn 0.1866 -0.9806 -0.0606
vn 0.1927 -0.9806 -0.0368
vn 0.1958 -0.9806 -0.0123
vn 0.1958 -0.9806 0.0123
vn 0.1927 -0.9806 0.0368
vn 0.1866 -0.9806 0.0606
vn 0.1775 -0.9806 0.0835
vn 0.1657 -0.9806 0.1051
vn 0.1512 -0.9806 0.1251
vn 0.1343 -0.9806 0.1430
vn 0.1153 -0.9806 0.1587
vn 0.0945 -0.9806 0.1719
vn 0.0722 -0.9806 0.1824
vn 0.0488 -0.9806 0.1900
vn 0.0246 -0.9806 0.1947
vn 0.0000 -0.9806 0.1962
vn -0.0246 -0.9806 0.1947
vn -0.0488 -0.9806 0.1900
vn -0.0722 -0.9806 0.1824
vn -0.0945 -0.9806 0.1719
vn -0.1153 -0.9806 0.1587
vn -0.1343 -0.9806 0.1430
vn -0.1512 -0.9806 0.1251
vn -0.1657 -0.9806 0.1051
vn -0.1775 -0.9806 0.0835
vn -0.1866 -0.9806 0.0606
vn -0.1927 -0.9806 0.0368
vn -0.1958 -0.9806 0.0123
vn -0.1958 -0.9806 -0.0123
vn -0.1927 -0.9806 -0.0368
vn -0.1866 -0.9806 -0.0606
vn -0.1775 -0.9806 -0.0835
vn -0.1657 -0.9806 -0.1051
vn -0.1512 -0.9806 -0.1251
vn -0.1343 -0.9806 -0.1430
vn -0.1153 -0.9806 -0.1587
vn -0.0945 -0.9806 -0.1719
vn -0.0722 -0.9806 -0.1824
vn -0.0488 -0.9806 -0.1900
vn 0.2627 -0.8382 0.4778
vn 0.3434 -0.7013 0.6247
vn -0.4934 -0.8382 0.2322
vn -0.6450 -0.7013 0.3035
vn 0.4202 -0.8382 -0.3476
vn 0.5493 -0.7013 -0.4544
vn -0.2007 -0.8382 -0.5070
vn -0.2624 -0.7013 -0.6628
vn 0.3205 -0.8382 0.4412
vn 0.4190 -0.7013 0.5767
vn -0.4604 -0.8382 0.2922
vn -0.6019 -0.7013 0.3820
vn 0.3733 -0.8382 -0.3975
vn 0.4880 -0.7013 -0.5196
vn 0.2117 -0.5249 -0.8244
vn 0.3133 -0.5249 -0.7914
vn -0.7187 -0.5249 -0.4561
vn -0.6558 -0.5249 -0.5426
vn 0.8095 -0.5249 0.2630
vn 0.7702 -0.5249 0.3624
vn -0.3133 -0.5249 0.7914
vn 0.1067 -0.5249 -0.8445
vn -0.7702 -0.5249 -0.3624
vn 0.8361 -0.5249 0.1595
vn -0.2117 -0.5249 0.8244
vn 0.0000 -0.5249 -0.8512
vn -0.8095 -0.5249 -0.2630
vn 0.8495 -0.5249 0.0534
vn -0.1067 -0.5249 0.8445
vn -0.8361 -0.5249 -0.1595
vn 0.8495 -0.5249 -0.0534
vn 0.0000 -0.5249 0.8512
vn -0.8495 -0.5249 -0.0534
vn 0.8361 -0.5249 -0.1595
vn 0.1067 -0.5249 0.8445
vn -0.8495 -0.5249 0.0534
vn 0.8095 -0.5249 -0.2630
vn 0.2117 -0.5249 0.8244
vn -0.8361 -0.5249 0.1595
vn 0.7702 -0.5249 -0.3624
vn -0.1067 -0.5249 -0.8445
vn 0.3133 -0.5249 0.7914
vn -0.8095 -0.5249 0.2630
vn 0.7187 -0.5249 -0.4561
vn -0.2117 -0.5249 -0.8244
vn 0.4101 -0.5249 0.7459
vn -0.7702 -0.5249 0.3624
vn 0.6558 -0.5249 -0.5426
vn -0.3133 -0.5249 -0.7914
vn 0.5003 -0.5249 0.6886
vn -0.7187 -0.5249 0.4561
vn 0.5827 -0.5249 -0.6205
vn -0.4101 -0.5249 -0.7459
vn 0.5827 -0.5249 0.6205
vn -0.6558 -0.5249 0.5426
vn 0.5003 -0.5249 -0.6886
vn -0.5003 -0.5249 -0.6886
vn 0.6558 -0.5249 0.5426
vn -0.5827 -0.5249 0.6205
vn 0.4101 -0.5249 -0.7459
vn -0.5827 -0.5249 -0.6205
vn 0.7187 -0.5249 0.4561
vn -0.8878 -0.3587 0.2885
vn -0.9169 -0.3587 0.1749
vn 0.7882 -0.3587 -0.5002
vn 0.8446 -0.3587 -0.3975
vn -0.2321 -0.3587 -0.9041
vn -0.1170 -0.3587 -0.9261
vn 0.4497 -0.3587 0.8180
vn 0.3436 -0.3587 0.8679
vn -0.8446 -0.3587 0.3975
vn 0.7192 -0.3587 -0.5950
vn -0.3436 -0.3587 -0.8679
vn 0.5487 -0.3587 0.7552
vn -0.7882 -0.3587 0.5002
vn 0.6390 -0.3587 -0.6805
vn -0.4497 -0.3587 -0.8180
vn 0.6390 -0.3587 0.6805
vn -0.7192 -0.3587 0.5950
vn 0.5487 -0.3587 -0.7552
vn -0.5487 -0.3587 -0.7552
vn 0.7192 -0.3587 0.5950
vn -0.6390 -0.3587 0.6805
vn 0.4497 -0.3587 -0.8180
vn -0.6390 -0.3587 -0.6805
vn 0.7882 -0.3587 0.5002
vn -0.5487 -0.3587 0.7552
vn 0.3436 -0.3587 -0.8679
vn -0.7192 -0.3587 -0.5950
vn 0.8446 -0.3587 0.3975
vn -0.4497 -0.3587 0.8180
vn 0.2321 -0.3587 -0.9041
vn -0.7882 -0.3587 -0.5002
vn 0.8878 -0.3587 0.2885
vn -0.3436 -0.3587 0.8679
vn 0.1170 -0.3587 -0.9261
vn -0.8446 -0.3587 -0.3975
vn 0.9169 -0.3587 0.1749
vn -0.2321 -0.3587 0.9041
vn 0.0000 -0.3587 -0.9335
vn -0.8878 -0.3587 -0.2885
vn 0.9316 -0.3587 0.0586
vn -0.1170 -0.3587 0.9261
vn -0.9169 -0.3587 -0.1749
vn 0.9316 -0.3587 -0.0586
vn 0.0000 -0.3587 0.9335
vn -0.9316 -0.3587 -0.0586
vn 0.9169 -0.3587 -0.1749
vn 0.1170 -0.3587 0.9261
vn -0.9316 -0.3587 0.0586
vn 0.8878 -0.3587 -0.2885
vn 0.2321 -0.3587 0.9041
vn -0.0686 0.8370 0.5429
vn -0.0894 0.7010 0.7075
vn -0.0000 0.7010 0.7131
vn -0.0000 0.8370 0.5472
vn 0.4192 0.7010 -0.5769
vn 0.5017 0.5210 -0.6905
vn 0.4112 0.5210 -0.7480
vn 0.3435 0.7010 -0.6249
vn 0.2636 0.8370 0.4796
vn 0.3435 0.7010 0.6249
vn 0.4192 0.7010 0.5769
vn 0.3217 0.8370 0.4427
vn -0.3746 0.8370 -0.3989
vn -0.4882 0.7010 -0.5198
vn -0.5495 0.7010 -0.4546
vn -0.4217 0.8370 -0.3488
vn 0.4217 0.8370 -0.3488
vn 0.5495 0.7010 -0.4546
vn 0.4882 0.7010 -0.5198
vn 0.3746 0.8370 -0.3989
vn -0.3217 0.8370 0.4427
vn -0.4192 0.7010 0.5769
vn -0.3435 0.7010 0.6249
vn -0.2636 0.8370 0.4796
vn 0.4882 0.7010 0.5198
vn 0.3746 0.8370 0.3989
vn -0.6021 0.7010 -0.3821
vn -0.4621 0.8370 -0.2932
vn 0.3217 0.8370 -0.4427
vn -0.2625 0.7010 0.6630
vn -0.2015 0.8370 0.5088
vn 0.5495 0.7010 0.4546
vn 0.4217 0.8370 0.3488
vn -0.6453 0.7010 -0.3036
vn -0.4952 0.8370 -0.2330
vn 0.2636 0.8370 -0.4796
vn -0.1773 0.7010 0.6907
vn -0.1361 0.8370 0.5301
vn 0.6021 0.7010 0.3821
vn 0.4621 0.8370 0.2932
vn -0.6782 0.7010 -0.2204
vn -0.5205 0.8370 -0.1691
vn 0.2625 0.7010 -0.6630
vn 0.2015 0.8370 -0.5088
vn 0.6453 0.7010 0.3036
vn 0.4952 0.8370 0.2330
vn -0.7005 0.7010 -0.1336
vn -0.5375 0.8370 -0.1025
vn 0.1773 0.7010 -0.6907
vn 0.1361 0.8370 -0.5301
vn 0.6782 0.7010 0.2204
vn 0.5205 0.8370 0.1691
vn -0.7117 0.7010 -0.0448
vn -0.5462 0.8370 -0.0344
vn 0.0894 0.7010 -0.7075
vn 0.0686 0.8370 -0.5429
vn 0.0686 0.8370 0.5429
vn 0.0894 0.7010 0.7075
vn 0.1773 0.7010 0.6907
vn 0.1361 0.8370 0.5301
vn 0.7005 0.7010 0.1336
vn 0.5375 0.8370 0.1025
vn -0.7117 0.7010 0.0448
vn -0.5462 0.8370 0.0344
vn -0.0000 0.7010 -0.7131
vn -0.0000 0.8370 -0.5472
vn 0.7117 0.7010 0.0448
vn 0.5462 0.8370 0.0344
vn -0.7005 0.7010 0.1336
vn -0.5375 0.8370 0.1025
vn -0.0894 0.7010 -0.7075
vn -0.0686 0.8370 -0.5429
vn 0.7117 0.7010 -0.0448
vn 0.5462 0.8370 -0.0344
vn -0.6782 0.7010 0.2204
vn -0.5205 0.8370 0.1691
vn -0.1773 0.7010 -0.6907
vn -0.1361 0.8370 -0.5301
vn 0.7005 0.7010 -0.1336
vn 0.5375 0.8370 -0.1025
vn -0.6453 0.7010 0.3036
vn -0.4952 0.8370 0.2330
vn -0.2625 0.7010 -0.6630
vn -0.2015 0.8370 -0.5088
vn 0.6782 0.7010 -0.2204
vn 0.5205 0.8370 -0.1691
vn -0.6021 0.7010 0.3821
vn -0.4621 0.8370 0.2932
vn 0.0245 0.9806 0.1943
vn 0.0487 0.9806 0.1897
vn 0.0721 0.9806 0.1821
vn 0.0944 0.9806 0.1716
vn 0.1151 0.9806 0.1585
vn 0.1341 0.9806 0.1428
vn 0.1509 0.9806 0.1249
vn 0.1654 0.9806 0.1050
vn 0.1772 0.9806 0.0834
vn 0.1863 0.9806 0.0605
vn 0.1924 0.9806 0.0367
vn 0.1955 0.9806 0.0123
vn 0.1955 0.9806 -0.0123
vn 0.1924 0.9806 -0.0367
vn 0.1863 0.9806 -0.0605
vn 0.1772 0.9806 -0.0834
vn 0.1654 0.9806 -0.1050
vn 0.1509 0.9806 -0.1249
vn 0.1341 0.9806 -0.1428
vn 0.1151 0.9806 -0.1585
vn 0.0944 0.9806 -0.1716
vn 0.0721 0.9806 -0.1821
vn 0.0487 0.9806 -0.1897
vn 0.0245 0.9806 -0.1943
vn -0.0000 0.9806 -0.1959
vn -0.0245 0.9806 -0.1943
vn -0.0487 0.9806 -0.1897
vn -0.0721 0.9806 -0.1821
vn -0.0944 0.9806 -0.1716
vn -0.1151 0.9806 -0.1585
vn -0.1341 0.9806 -0.1428
vn -0.1509 0.9806 -0.1249
vn -0.1654 0.9806 -0.1050
vn -0.1772 0.9806 -0.0834
vn -0.1863 0.9806 -0.0605
vn -0.1924 0.9806 -0.0367
vn -0.1955 0.9806 -0.0123
vn -0.1955 0.9806 0.0123
vn -0.1924 0.9806 0.0367
vn -0.1863 0.9806 0.0605
vn -0.1772 0.9806 0.0834
vn -0.1654 0.9806 0.1050
vn -0.1509 0.9806 0.1249
vn -0.1341 0.9806 0.1428
vn -0.1151 0.9806 0.1585
vn -0.0944 0.9806 0.1716
vn -0.0721 0.9806 0.1821
vn -0.0487 0.9806 0.1897
vn -0.0245 0.9806 0.1943
vn -0.0000 0.9806 0.1959
vn -0.3435 0.7010 -0.6249
vn -0.2636 0.8370 -0.4796
vn 0.6453 0.7010 -0.3036
vn 0.4952 0.8370 -0.2330
vn -0.5495 0.7010 0.4546
vn -0.4217 0.8370 0.3488
vn 0.2625 0.7010 0.6630
vn 0.2015 0.8370 0.5088
vn -0.4192 0.7010 -0.5769
vn -0.3217 0.8370 -0.4427
vn 0.6021 0.7010 -0.3821
vn 0.4621 0.8370 -0.2932
vn -0.4882 0.7010 0.5198
vn -0.3746 0.8370 0.3989
vn -0.3142 0.5210 0.7936
vn -0.2123 0.5210 0.8267
vn 0.6577 0.5210 0.5441
vn 0.7207 0.5210 0.4574
vn -0.7723 0.5210 -0.3634
vn -0.8118 0.5210 -0.2638
vn 0.3142 0.5210 -0.7936
vn -0.1070 0.5210 0.8468
vn 0.7723 0.5210 0.3634
vn -0.8384 0.5210 -0.1599
vn 0.2123 0.5210 -0.8267
vn -0.0000 0.5210 0.8536
vn 0.8118 0.5210 0.2638
vn -0.8519 0.5210 -0.0536
vn 0.1070 0.5210 -0.8468
vn 0.8384 0.5210 0.1599
vn -0.8519 0.5210 0.0536
vn -0.0000 0.5210 -0.8536
vn 0.8519 0.5210 0.0536
vn -0.8384 0.5210 0.1599
vn -0.1070 0.5210 -0.8468
vn 0.8519 0.5210 -0.0536
vn -0.8118 0.5210 0.2638
vn -0.2123 0.5210 -0.8267
vn 0.8384 0.5210 -0.1599
vn -0.7723 0.5210 0.3634
vn 0.1070 0.5210 0.8468
vn -0.3142 0.5210 -0.7936
vn 0.8118 0.5210 -0.2638
vn -0.7207 0.5210 0.4574
vn 0.2123 0.5210 0.8267
vn -0.4112 0.5210 -0.7480
vn 0.7723 0.5210 -0.3634
vn -0.6577 0.5210 0.5441
vn 0.3142 0.5210 0.7936
vn -0.5017 0.5210 -0.6905
vn 0.7207 0.5210 -0.4574
vn -0.5843 0.5210 0.6222
vn 0.4112 0.5210 0.7480
vn -0.5843 0.5210 -0.6222
vn 0.6577 0.5210 -0.5441
vn -0.5017 0.5210 0.6905
vn 0.5017 0.5210 0.6905
vn -0.6577 0.5210 -0.5441
vn 0.5843 0.5210 -0.6222
vn -0.4112 0.5210 0.7480
vn 0.5843 0.5210 0.6222
vn -0.7207 0.5210 -0.4574
vn 0.9214 0.3466 -0.1758
vn 0.8921 0.3466 -0.2899
vn -0.8487 0.3466 0.3994
vn -0.7920 0.3466 0.5026
vn 0.1176 0.3466 0.9306
vn 0.2333 0.3466 0.9085
vn -0.3453 0.3466 -0.8721
vn -0.4519 0.3466 -0.8220
vn 0.8487 0.3466 -0.3994
vn -0.7227 0.3466 0.5979
vn 0.3453 0.3466 0.8721
vn -0.5514 0.3466 -0.7589
vn 0.7920 0.3466 -0.5026
vn -0.6421 0.3466 0.6838
vn 0.4519 0.3466 0.8220
vn -0.6421 0.3466 -0.6838
vn 0.7227 0.3466 -0.5979
vn -0.5514 0.3466 0.7589
vn 0.5513 0.3466 0.7589
vn -0.7227 0.3466 -0.5979
vn 0.6421 0.3466 -0.6838
vn -0.4519 0.3466 0.8220
vn 0.6421 0.3466 0.6838
vn -0.7920 0.3466 -0.5026
vn 0.5513 0.3466 -0.7589
vn -0.3453 0.3466 0.8721
vn 0.7227 0.3466 0.5979
vn -0.8487 0.3466 -0.3994
vn 0.4519 0.3466 -0.8220
vn -0.2333 0.3466 0.9085
vn 0.7920 0.3466 0.5026
vn -0.8921 0.3466 -0.2899
vn 0.3453 0.3466 -0.8721
vn -0.1176 0.3466 0.9306
vn 0.8487 0.3466 0.3994
vn -0.9214 0.3466 -0.1758
vn 0.2333 0.3466 -0.9085
vn -0.0000 0.3466 0.9380
vn 0.8921 0.3466 0.2899
vn -0.9362 0.3466 -0.0589
vn 0.1176 0.3466 -0.9306
vn 0.9214 0.3466 0.1758
vn -0.9362 0.3466 0.0589
vn -0.0000 0.3466 -0.9380
vn 0.9362 0.3466 0.0589
vn -0.9214 0.3466 0.1758
vn -0.1176 0.3466 -0.9306
vn 0.9362 0.3466 -0.0589
vn -0.8921 0.3466 0.2899
vn -0.2333 0.3466 -0.9085
vn 0.0000 0.9335 -0.3587
vn -0.0450 0.9335 -0.3558
vn -0.0892 0.9335 -0.3474
vn -0.1320 0.9335 -0.3335
vn -0.1728 0.9335 -0.3143
vn -0.2108 0.9335 -0.2902
vn -0.2455 0.9335 -0.2615
vn -0.2764 0.9335 -0.2286
vn -0.3028 0.9335 -0.1922
vn -0.3245 0.9335 -0.1527
vn -0.3411 0.9335 -0.1108
vn -0.3523 0.9335 -0.0672
vn -0.3580 0.9335 -0.0225
vn -0.3580 0.9335 0.0225
vn -0.3523 0.9335 0.0672
vn -0.3411 0.9335 0.1108
vn -0.3245 0.9335 0.1527
vn -0.3028 0.9335 0.1922
vn -0.2764 0.9335 0.2286
vn -0.2455 0.9335 0.2615
vn -0.2108 0.9335 0.2902
vn -0.1728 0.9335 0.3143
vn -0.1320 0.9335 0.3335
vn -0.0892 0.9335 0.3474
vn -0.0450 0.9335 0.3558
vn 0.0000 0.9335 0.3587
vn 0.0450 0.9335 0.3558
vn 0.0892 0.9335 0.3474
vn 0.1320 0.9335 0.3335
vn 0.1728 0.9335 0.3143
vn 0.2108 0.9335 0.2902
vn 0.2455 0.9335 0.2615
vn 0.2764 0.9335 0.2286
vn 0.3028 0.9335 0.1922
vn 0.3245 0.9335 0.1527
vn 0.3411 0.9335 0.1108
vn 0.3523 0.9335 0.0672
vn 0.3580 0.9335 0.0225
vn 0.3580 0.9335 -0.0225
vn 0.3523 0.9335 -0.0672
vn 0.3411 0.9335 -0.1108
vn 0.3245 0.9335 -0.1527
vn 0.3028 0.9335 -0.1922
vn 0.2764 0.9335 -0.2286
vn 0.2455 0.9335 -0.2615
vn 0.2108 0.9335 -0.2902
vn 0.1728 0.9335 -0.3143
vn 0.1320 0.9335 -0.3335
vn 0.0892 0.9335 -0.3474
vn 0.0450 0.9335 -0.3558
usemtl Ancient_Plate
s 1
f 200/1/1 101/2/2 1/3/3 50/4/4
f 21/5/5 22/6/6 72/7/7 71/8/8
f 110/9/9 112/10/10 6/11/11 5/12/12
f 164/13/13 166/14/14 33/15/15 32/16/16
f 138/17/17 140/18/18 20/19/19 19/20/20
f 192/21/21 194/22/22 47/23/23 46/24/24
f 112/10/10 114/25/25 7/26/26 6/11/11
f 166/14/14 168/27/27 34/28/28 33/15/15
f 140/18/18 142/29/29 21/5/5 20/19/19
f 194/22/22 196/30/30 48/31/31 47/23/23
f 114/25/25 116/32/32 8/33/33 7/26/26
f 168/27/27 170/34/34 35/35/35 34/28/28
f 142/29/29 144/36/36 22/6/6 21/5/5
f 196/30/30 198/37/37 49/38/38 48/31/31
f 116/32/32 118/39/39 9/40/40 8/33/33
f 170/34/34 172/41/41 36/42/42 35/35/35
f 144/36/36 146/43/43 23/44/44 22/6/6
f 198/37/37 200/1/1 50/4/4 49/38/38
f 118/39/39 120/45/45 10/46/46 9/40/40
f 172/41/41 174/47/47 37/48/48 36/42/42
f 146/43/43 148/49/49 24/50/50 23/44/44
f 120/45/45 122/51/51 11/52/52 10/46/46
f 174/47/47 176/53/53 38/54/54 37/48/48
f 148/49/49 150/55/55 25/56/56 24/50/50
f 104/57/57 106/58/58 3/59/59 2/60/60
f 122/51/51 124/61/61 12/62/62 11/52/52
f 176/53/53 178/63/63 39/64/64 38/54/54
f 150/55/55 152/65/65 26/66/66 25/56/56
f 124/61/61 126/67/67 13/68/68 12/62/62
f 178/63/63 180/69/69 40/70/70 39/64/64
f 152/65/65 154/71/71 27/72/72 26/66/66
f 126/67/67 128/73/73 14/74/74 13/68/68
f 180/69/69 182/75/75 41/76/76 40/70/70
f 154/71/71 156/77/77 28/78/78 27/72/72
f 128/73/73 130/79/79 15/80/80 14/74/74
f 182/75/75 184/81/81 42/82/82 41/76/76
f 156/77/77 158/83/83 29/84/84 28/78/78
f 130/79/79 132/85/85 16/86/86 15/80/80
f 184/81/81 186/87/87 43/88/88 42/82/82
f 103/89/89 102/90/90 199/91/91 197/92/92 195/93/93 193/94/94 191/95/95 189/96/96 187/97/97 185/98/98 183/99/99 181/100/100 179/101/101 177/102/102 175/103/103 173/104/104 171/105/105 169/106/106 167/107/107 165/108/108 163/109/109 161/110/110 159/111/111 157/112/112 155/113/113 153/114/114 151/115/115 149/116/116 147/117/117 145/118/118 143/119/119 141/120/120 139/121/121 137/122/122 135/123/123 133/124/124 131/125/125 129/126/126 127/127/127 125/128/128 123/129/129 121/130/130 119/131/131 117/132/132 115/133/133 113/134/134 111/135/135 109/136/136 107/137/137 105/138/138
f 158/83/83 160/139/139 30/140/140 29/84/84
f 132/85/85 134/141/141 17/142/142 16/86/86
f 186/87/87 188/143/143 44/144/144 43/88/88
f 106/58/58 108/145/145 4/146/146 3/59/59
f 160/139/139 162/147/147 31/148/148 30/140/140
f 134/141/141 136/149/149 18/150/150 17/142/142
f 188/143/143 190/151/151 45/152/152 44/144/144
f 108/145/145 110/9/9 5/12/12 4/146/146
f 162/147/147 164/13/13 32/16/16 31/148/148
f 136/149/149 138/17/17 19/20/20 18/150/150
f 190/151/151 192/21/21 46/24/24 45/152/152
f 48/31/31 49/38/38 99/153/153 98/154/154
f 8/33/33 9/40/40 59/155/155 58/156/156
f 35/35/35 36/42/42 86/157/157 85/158/158
f 22/6/6 23/44/44 73/159/159 72/7/7
f 49/38/38 50/4/4 100/160/160 99/153/153
f 9/40/40 10/46/46 60/161/161 59/155/155
f 36/42/42 37/48/48 87/162/162 86/157/157
f 23/44/44 24/50/50 74/163/163 73/159/159
f 50/4/4 1/3/3 51/164/164 100/160/160
f 10/46/46 11/52/52 61/165/165 60/161/161
f 37/48/48 38/54/54 88/166/166 87/162/162
f 24/50/50 25/56/56 75/167/167 74/163/163
f 11/52/52 12/62/62 62/168/168 61/165/165
f 38/54/54 39/64/64 89/169/169 88/166/166
f 25/56/56 26/66/66 76/170/170 75/167/167
f 12/62/62 13/68/68 63/171/171 62/168/168
f 39/64/64 40/70/70 90/172/172 89/169/169
f 26/66/66 27/72/72 77/173/173 76/170/170
f 13/68/68 14/74/74 64/174/174 63/171/171
f 40/70/70 41/76/76 91/175/175 90/172/172
f 27/72/72 28/78/78 78/176/176 77/173/173
f 14/74/74 15/80/80 65/177/177 64/174/174
f 41/76/76 42/82/82 92/178/178 91/175/175
f 1/3/3 2/60/60 52/179/179 51/164/164
f 28/78/78 29/84/84 79/180/180 78/176/176
f 15/80/80 16/86/86 66/181/181 65/177/177
f 42/82/82 43/88/88 93/182/182 92/178/178
f 2/60/60 3/59/59 53/183/183 52/179/179
f 29/84/84 30/140/140 80/184/184 79/180/180
f 16/86/86 17/142/142 67/185/185 66/181/181
f 43/88/88 44/144/144 94/186/186 93/182/182
f 3/59/59 4/146/146 54/187/187 53/183/183
f 30/140/140 31/148/148 81/188/188 80/184/184
f 17/142/142 18/150/150 68/189/189 67/185/185
f 44/144/144 45/152/152 95/190/190 94/186/186
f 4/146/146 5/12/12 55/191/191 54/187/187
f 31/148/148 32/16/16 82/192/192 81/188/188
f 18/150/150 19/20/20 69/193/193 68/189/189
f 45/152/152 46/24/24 96/194/194 95/190/190
f 5/12/12 6/11/11 56/195/195 55/191/191
f 32/16/16 33/15/15 83/196/196 82/192/192
f 19/20/20 20/19/19 70/197/197 69/193/193
f 46/24/24 47/23/23 97/198/198 96/194/194
f 6/11/11 7/26/26 57/199/199 56/195/195
f 33/15/15 34/28/28 84/200/200 83/196/196
f 20/19/19 21/5/5 71/8/8 70/197/197
f 47/23/23 48/31/31 98/154/154 97/198/198
f 7/26/26 8/33/33 58/156/156 57/199/199
f 34/28/28 35/35/35 85/158/158 84/200/200
f 104/57/57 101/2/2 102/90/90 103/89/89
f 106/58/58 104/57/57 103/89/89 105/138/138
f 108/145/145 106/58/58 105/138/138 107/137/137
f 110/9/9 108/145/145 107/137/137 109/136/136
f 112/10/10 110/9/9 109/136/136 111/135/135
f 114/25/25 112/10/10 111/135/135 113/134/134
f 116/32/32 114/25/25 113/134/134 115/133/133
f 118/39/39 116/32/32 115/133/133 117/132/132
f 120/45/45 118/39/39 117/132/132 119/131/131
f 122/51/51 120/45/45 119/131/131 121/130/130
f 124/61/61 122/51/51 121/130/130 123/129/129
f 126/67/67 124/61/61 123/129/129 125/128/128
f 128/73/73 126/67/67 125/128/128 127/127/127
f 130/79/79 128/73/73 127/127/127 129/126/126
f 132/85/85 130/79/79 129/126/126 131/125/125
f 134/141/141 132/85/85 131/125/125 133/124/124
f 136/149/149 134/141/141 133/124/124 135/123/123
f 138/17/17 136/149/149 135/123/123 137/122/122
f 140/18/18 138/17/17 137/122/122 139/121/121
f 142/29/29 140/18/18 139/121/121 141/120/120
f 144/36/36 142/29/29 141/120/120 143/119/119
f 146/43/43 144/36/36 143/119/119 145/118/118
f 148/49/49 146/43/43 145/118/118 147/117/117
f 150/55/55 148/49/49 147/117/117 149/116/116
f 152/65/65 150/55/55 149/116/116 151/115/115
f 154/71/71 152/65/65 151/115/115 153/114/114
f 156/77/77 154/71/71 153/114/114 155/113/113
f 158/83/83 156/77/77 155/113/113 157/112/112
f 160/139/139 158/83/83 157/112/112 159/111/111
f 162/147/147 160/139/139 159/111/111 161/110/110
f 164/13/13 162/147/147 161/110/110 163/109/109
f 166/14/14 164/13/13 163/109/109 165/108/108
f 168/27/27 166/14/14 165/108/108 167/107/107
f 170/34/34 168/27/27 167/107/107 169/106/106
f 172/41/41 170/34/34 169/106/106 171/105/105
f 174/47/47 172/41/41 171/105/105 173/104/104
f 176/53/53 174/47/47 173/104/104 175/103/103
f 178/63/63 176/53/53 175/103/103 177/102/102
f 180/69/69 178/63/63 177/102/102 179/101/101
f 182/75/75 180/69/69 179/101/101 181/100/100
f 184/81/81 182/75/75 181/100/100 183/99/99
f 186/87/87 184/81/81 183/99/99 185/98/98
f 188/143/143 186/87/87 185/98/98 187/97/97
f 190/151/151 188/143/143 187/97/97 189/96/96
f 192/21/21 190/151/151 189/96/96 191/95/95
f 194/22/22 192/21/21 191/95/95 193/94/94
f 196/30/30 194/22/22 193/94/94 195/93/93
f 198/37/37 196/30/30 195/93/93 197/92/92
f 200/1/1 198/37/37 197/92/92 199/91/91
f 101/2/2 200/1/1 199/91/91 102/90/90
f 101/2/2 104/57/57 2/60/60 1/3/3
f 65/177/177 66/181/181 216/201/201 215/202/202
f 92/178/178 93/182/182 243/203/203 242/204/204
f 52/179/179 53/183/183 203/205/205 202/206/206
f 79/180/180 80/184/184 230/207/207 229/208/208
f 66/181/181 67/185/185 217/209/209 216/201/201
f 93/182/182 94/186/186 244/210/210 243/203/203
f 53/183/183 54/187/187 204/211/211 203/205/205
f 80/184/184 81/188/188 231/212/212 230/207/207
f 67/185/185 68/189/189 218/213/213 217/209/209
f 94/186/186 95/190/190 245/214/214 244/210/210
f 54/187/187 55/191/191 205/215/215 204/211/211
f 81/188/188 82/192/192 232/216/216 231/212/212
f 68/189/189 69/193/193 219/217/217 218/213/213
f 95/190/190 96/194/194 246/218/218 245/214/214
f 55/191/191 56/195/195 206/219/219 205/215/215
f 82/192/192 83/196/196 233/220/220 232/216/216
f 69/193/193 70/197/197 220/221/221 219/217/217
f 96/194/194 97/198/198 247/222/222 246/218/218
f 56/195/195 57/199/199 207/223/223 206/219/219
f 83/196/196 84/200/200 234/224/224 233/220/220
f 70/197/197 71/8/8 221/225/225 220/221/221
f 97/198/198 98/154/154 248/226/226 247/222/222
f 57/199/199 58/156/156 208/227/227 207/223/223
f 84/200/200 85/158/158 235/228/228 234/224/224
f 71/8/8 72/7/7 222/229/229 221/225/225
f 98/154/154 99/153/153 249/230/230 248/226/226
f 58/156/156 59/155/155 209/231/231 208/227/227
f 85/158/158 86/157/157 236/232/232 235/228/228
f 72/7/7 73/159/159 223/233/233 222/229/229
f 99/153/153 100/160/160 250/234/234 249/230/230
f 59/155/155 60/161/161 210/235/235 209/231/231
f 86/157/157 87/162/162 237/236/236 236/232/232
f 73/159/159 74/163/163 224/237/237 223/233/233
f 100/160/160 51/164/164 201/238/238 250/234/234
f 60/161/161 61/165/165 211/239/239 210/235/235
f 87/162/162 88/166/166 238/240/240 237/236/236
f 74/163/163 75/167/167 225/241/241 224/237/237
f 61/165/165 62/168/168 212/242/242 211/239/239
f 88/166/166 89/169/169 239/243/243 238/240/240
f 75/167/167 76/170/170 226/244/244 225/241/241
f 62/168/168 63/171/171 213/245/245 212/242/242
f 89/169/169 90/172/172 240/246/246 239/243/243
f 76/170/170 77/173/173 227/247/247 226/244/244
f 63/171/171 64/174/174 214/248/248 213/245/245
f 90/172/172 91/175/175 241/249/249 240/246/246
f 77/173/173 78/176/176 228/250/250 227/247/247
f 64/174/174 65/177/177 215/202/202 214/248/248
f 91/175/175 92/178/178 242/204/204 241/249/249
f 51/164/164 52/179/179 202/206/206 201/238/238
f 78/176/176 79/180/180 229/208/208 228/250/250
f 450/251/251 300/252/252 251/253/253 351/254/254
f 271/255/255 321/256/256 322/257/257 272/258/258
f 360/259/259 255/260/260 256/261/261 362/262/262
f 414/263/263 282/264/264 283/265/265 416/266/266
f 388/267/267 269/268/268 270/269/269 390/270/270
f 442/271/271 296/272/272 297/273/273 444/274/274
f 362/262/262 256/261/261 257/275/275 364/276/276
f 416/266/266 283/265/265 284/277/277 418/278/278
f 390/270/270 270/269/269 271/255/255 392/279/279
f 444/274/274 297/273/273 298/280/280 446/281/281
f 364/276/276 257/275/275 258/282/282 366/283/283
f 418/278/278 284/277/277 285/284/284 420/285/285
f 392/279/279 271/255/255 272/258/258 394/286/286
f 446/281/281 298/280/280 299/287/287 448/288/288
f 366/283/283 258/282/282 259/289/289 368/290/290
f 420/285/285 285/284/284 286/291/291 422/292/292
f 394/286/286 272/258/258 273/293/293 396/294/294
f 448/288/288 299/287/287 300/252/252 450/251/251
f 368/290/290 259/289/289 260/295/295 370/296/296
f 422/292/292 286/291/291 287/297/297 424/298/298
f 396/294/294 273/293/293 274/299/299 398/300/300
f 370/296/296 260/295/295 261/301/301 372/302/302
f 424/298/298 287/297/297 288/303/303 426/304/304
f 398/300/300 274/299/299 275/305/305 400/306/306
f 354/307/307 252/308/308 253/309/309 356/310/310
f 372/302/302 261/301/301 262/311/311 374/312/312
f 426/304/304 288/303/303 289/313/313 428/314/314
f 400/306/306 275/305/305 276/315/315 402/316/316
f 374/312/312 262/311/311 263/317/317 376/318/318
f 428/314/314 289/313/313 290/319/319 430/320/320
f 402/316/316 276/315/315 277/321/321 404/322/322
f 376/318/318 263/317/317 264/323/323 378/324/324
f 430/320/320 290/319/319 291/325/325 432/326/326
f 404/322/322 277/321/321 278/327/327 406/328/328
f 378/324/324 264/323/323 265/329/329 380/330/330
f 432/326/326 291/325/325 292/331/331 434/332/332
f 406/328/328 278/327/327 279/333/333 408/334/334
f 380/330/330 265/329/329 266/335/335 382/336/336
f 434/332/332 292/331/331 293/337/337 436/338/338
f 353/339/339 355/340/340 357/341/341 359/342/342 361/343/343 363/344/344 365/345/345 367/346/346 369/347/347 371/348/348 373/349/349 375/350/350 377/351/351 379/352/352 381/353/353 383/354/354 385/355/355 387/356/356 389/357/357 391/358/358 393/359/359 395/360/360 397/361/361 399/362/362 401/363/363 403/364/364 405/365/365 407/366/366 409/367/367 411/368/368 413/369/369 415/370/370 417/371/371 419/372/372 421/373/373 423/374/374 425/375/375 427/376/376 429/377/377 431/378/378 433/379/379 435/380/380 437/381/381 439/382/382 441/383/383 443/384/384 445/385/385 447/386/386 449/387/387 352/388/388
f 408/334/334 279/333/333 280/389/389 410/390/390
f 382/336/336 266/335/335 267/391/391 384/392/392
f 436/338/338 293/337/337 294/393/393 438/394/394
f 356/310/310 253/309/309 254/395/395 358/396/396
f 410/390/390 280/389/389 281/397/397 412/398/398
f 384/392/392 267/391/391 268/399/399 386/400/400
f 438/394/394 294/393/393 295/401/401 440/402/402
f 358/396/396 254/395/395 255/260/260 360/259/259
f 412/398/398 281/397/397 282/264/264 414/263/263
f 386/400/400 268/399/399 269/268/268 388/267/267
f 440/402/402 295/401/401 296/272/272 442/271/271
f 298/280/280 348/403/403 349/404/404 299/287/287
f 258/282/282 308/405/405 309/406/406 259/289/289
f 285/284/284 335/407/407 336/408/408 286/291/291
f 272/258/258 322/257/257 323/409/409 273/293/293
f 299/287/287 349/404/404 350/410/410 300/252/252
f 259/289/289 309/406/406 310/411/411 260/295/295
f 286/291/291 336/408/408 337/412/412 287/297/297
f 273/293/293 323/409/409 324/413/413 274/299/299
f 300/252/252 350/410/410 301/414/414 251/253/253
f 260/295/295 310/411/411 311/415/415 261/301/301
f 287/297/297 337/412/412 338/416/416 288/303/303
f 274/299/299 324/413/413 325/417/417 275/305/305
f 261/301/301 311/415/415 312/418/418 262/311/311
f 288/303/303 338/416/416 339/419/419 289/313/313
f 275/305/305 325/417/417 326/420/420 276/315/315
f 262/311/311 312/418/418 313/421/421 263/317/317
f 289/313/313 339/419/419 340/422/422 290/319/319
f 276/315/315 326/420/420 327/423/423 277/321/321
f 263/317/317 313/421/421 314/424/424 264/323/323
f 290/319/319 340/422/422 341/425/425 291/325/325
f 277/321/321 327/423/423 328/426/426 278/327/327
f 264/323/323 314/424/424 315/427/427 265/329/329
f 291/325/325 341/425/425 342/428/428 292/331/331
f 251/253/253 301/414/414 302/429/429 252/308/308
f 278/327/327 328/426/426 329/430/430 279/333/333
f 265/329/329 315/427/427 316/431/431 266/335/335
f 292/331/331 342/428/428 343/432/432 293/337/337
f 252/308/308 302/429/429 303/433/433 253/309/309
f 279/333/333 329/430/430 330/434/434 280/389/389
f 266/335/335 316/431/431 317/435/435 267/391/391
f 293/337/337 343/432/432 344/436/436 294/393/393
f 253/309/309 303/433/433 304/437/437 254/395/395
f 280/389/389 330/434/434 331/438/438 281/397/397
f 267/391/391 317/435/435 318/439/439 268/399/399
f 294/393/393 344/436/436 345/440/440 295/401/401
f 254/395/395 304/437/437 305/441/441 255/260/260
f 281/397/397 331/438/438 332/442/442 282/264/264
f 268/399/399 318/439/439 319/443/443 269/268/268
f 295/401/401 345/440/440 346/444/444 296/272/272
f 255/260/260 305/441/441 306/445/445 256/261/261
f 282/264/264 332/442/442 333/446/446 283/265/265
f 269/268/268 319/443/443 320/447/447 270/269/269
f 296/272/272 346/444/444 347/448/448 297/273/273
f 256/261/261 306/445/445 307/449/449 257/275/275
f 283/265/265 333/446/446 334/450/450 284/277/277
f 270/269/269 320/447/447 321/256/256 271/255/255
f 297/273/273 347/448/448 348/403/403 298/280/280
f 257/275/275 307/449/449 308/405/405 258/282/282
f 284/277/277 334/450/450 335/407/407 285/284/284
f 354/307/307 353/339/339 352/388/388 351/254/254
f 356/310/310 355/340/340 353/339/339 354/307/307
f 358/396/396 357/341/341 355/340/340 356/310/310
f 360/259/259 359/342/342 357/341/341 358/396/396
f 362/262/262 361/343/343 359/342/342 360/259/259
f 364/276/276 363/344/344 361/343/343 362/262/262
f 366/283/283 365/345/345 363/344/344 364/276/276
f 368/290/290 367/346/346 365/345/345 366/283/283
f 370/296/296 369/347/347 367/346/346 368/290/290
f 372/302/302 371/348/348 369/347/347 370/296/296
f 374/312/312 373/349/349 371/348/348 372/302/302
f 376/318/318 375/350/350 373/349/349 374/312/312
f 378/324/324 377/351/351 375/350/350 376/318/318
f 380/330/330 379/352/352 377/351/351 378/324/324
f 382/336/336 381/353/353 379/352/352 380/330/330
f 384/392/392 383/354/354 381/353/353 382/336/336
f 386/400/400 385/355/355 383/354/354 384/392/392
f 388/267/267 387/356/356 385/355/355 386/400/400
f 390/270/270 389/357/357 387/356/356 388/267/267
f 392/279/279 391/358/358 389/357/357 390/270/270
f 394/286/286 393/359/359 391/358/358 392/279/279
f 396/294/294 395/360/360 393/359/359 394/286/286
f 398/300/300 397/361/361 395/360/360 396/294/294
f 400/306/306 399/362/362 397/361/361 398/300/300
f 402/316/316 401/363/363 399/362/362 400/306/306
f 404/322/322 403/364/364 401/363/363 402/316/316
f 406/328/328 405/365/365 403/364/364 404/322/322
f 408/334/334 407/366/366 405/365/365 406/328/328
f 410/390/390 409/367/367 407/366/366 408/334/334
f 412/398/398 411/368/368 409/367/367 410/390/390
f 414/263/263 413/369/369 411/368/368 412/398/398
f 416/266/266 415/370/370 413/369/369 414/263/263
f 418/278/278 417/371/371 415/370/370 416/266/266
f 420/285/285 419/372/372 417/371/371 418/278/278
f 422/292/292 421/373/373 419/372/372 420/285/285
f 424/298/298 423/374/374 421/373/373 422/292/292
f 426/304/304 425/375/375 423/374/374 424/298/298
f 428/314/314 427/376/376 425/375/375 426/304/304
f 430/320/320 429/377/377 427/376/376 428/314/314
f 432/326/326 431/378/378 429/377/377 430/320/320
f 434/332/332 433/379/379 431/378/378 432/326/326
f 436/338/338 435/380/380 433/379/379 434/332/332
f 438/394/394 437/381/381 435/380/380 436/338/338
f 440/402/402 439/382/382 437/381/381 438/394/394
f 442/271/271 441/383/383 439/382/382 440/402/402
f 444/274/274 443/384/384 441/383/383 442/271/271
f 446/281/281 445/385/385 443/384/384 444/274/274
f 448/288/288 447/386/386 445/385/385 446/281/281
f 450/251/251 449/387/387 447/386/386 448/288/288
f 351/254/254 352/388/388 449/387/387 450/251/251
f 351/254/254 251/253/253 252/308/308 354/307/307
f 315/427/427 465/451/451 466/452/452 316/431/431
f 342/428/428 492/453/453 493/454/454 343/432/432
f 302/429/429 452/455/455 453/456/456 303/433/433
f 329/430/430 479/457/457 480/458/458 330/434/434
f 316/431/431 466/452/452 467/459/459 317/435/435
f 343/432/432 493/454/454 494/460/460 344/436/436
f 303/433/433 453/456/456 454/461/461 304/437/437
f 330/434/434 480/458/458 481/462/462 331/438/438
f 317/435/435 467/459/459 468/463/463 318/439/439
f 344/436/436 494/460/460 495/464/464 345/440/440
f 304/437/437 454/461/461 455/465/465 305/441/441
f 331/438/438 481/462/462 482/466/466 332/442/442
f 318/439/439 468/463/463 469/467/467 319/443/443
f 345/440/440 495/464/464 496/468/468 346/444/444
f 305/441/441 455/465/465 456/469/469 306/445/445
f 332/442/442 482/466/466 483/470/470 333/446/446
f 319/443/443 469/467/467 470/471/471 320/447/447
f 346/444/444 496/468/468 497/472/472 347/448/448
f 306/445/445 456/469/469 457/473/473 307/449/449
f 333/446/446 483/470/470 484/474/474 334/450/450
f 320/447/447 470/471/471 471/475/475 321/256/256
f 347/448/448 497/472/472 498/476/476 348/403/403
f 307/449/449 457/473/473 458/477/477 308/405/405
f 334/450/450 484/474/474 485/478/478 335/407/407
f 321/256/256 471/475/475 472/479/479 322/257/257
f 348/403/403 498/476/476 499/480/480 349/404/404
f 308/405/405 458/477/477 459/481/481 309/406/406
f 335/407/407 485/478/478 486/482/482 336/408/408
f 322/257/257 472/479/479 473/483/483 323/409/409
f 349/404/404 499/480/480 500/484/484 350/410/410
f 309/406/406 459/481/481 460/485/485 310/411/411
f 336/408/408 486/482/482 487/486/486 337/412/412
f 323/409/409 473/483/483 474/487/487 324/413/413
f 350/410/410 500/484/484 451/488/488 301/414/414
f 310/411/411 460/485/485 461/489/489 311/415/415
f 337/412/412 487/486/486 488/490/490 338/416/416
f 324/413/413 474/487/487 475/491/491 325/417/417
f 311/415/415 461/489/489 462/492/492 312/418/418
f 338/416/416 488/490/490 489/493/493 339/419/419
f 325/417/417 475/491/491 476/494/494 326/420/420
f 312/418/418 462/492/492 463/495/495 313/421/421
f 339/419/419 489/493/493 490/496/496 340/422/422
f 326/420/420 476/494/494 477/497/497 327/423/423
f 313/421/421 463/495/495 464/498/498 314/424/424
f 340/422/422 490/496/496 491/499/499 341/425/425
f 327/423/423 477/497/497 478/500/500 328/426/426
f 314/424/424 464/498/498 465/451/451 315/427/427
f 341/425/425 491/499/499 492/453/453 342/428/428
f 301/414/414 451/488/488 452/455/455 302/429/429
f 328/426/426 478/500/500 479/457/457 329/430/430
f 201/501/501 202/502/502 452/503/502 451/504/501
f 202/502/502 203/505/503 453/506/503 452/503/502
f 203/505/503 204/507/504 454/508/504 453/506/503
f 204/507/504 205/509/505 455/510/505 454/508/504
f 205/509/505 206/511/506 456/512/506 455/510/505
f 206/511/506 207/513/507 457/514/507 456/512/506
f 207/513/507 208/515/508 458/516/508 457/514/507
f 208/515/508 209/517/509 459/518/509 458/516/508
f 209/517/509 210/519/510 460/520/510 459/518/509
f 210/519/510 211/521/511 461/522/511 460/520/510
f 211/521/511 212/523/512 462/524/512 461/522/511
f 212/523/512 213/525/513 463/526/513 462/524/512
f 213/525/513 214/527/514 464/528/514 463/526/513
f 214/527/514 215/529/515 465/530/515 464/528/514
f 215/529/515 216/531/516 466/532/516 465/530/515
f 216/531/516 217/533/517 467/534/517 466/532/516
f 217/533/517 218/535/518 468/536/518 467/534/517
f 218/535/518 219/537/519 469/538/519 468/536/518
f 219/537/519 220/539/520 470/540/520 469/538/519
f 220/539/520 221/541/521 471/542/521 470/540/520
f 221/541/521 222/543/522 472/544/522 471/542/521
f 222/543/522 223/545/523 473/546/523 472/544/522
f 223/545/523 224/547/524 474/548/524 473/546/523
f 224/547/524 225/549/525 475/550/525 474/548/524
f 225/549/525 226/551/526 476/552/526 475/550/525
f 226/551/526 227/553/527 477/554/527 476/552/526
f 227/553/527 228/555/528 478/556/528 477/554/527
f 228/555/528 229/557/529 479/558/529 478/556/528
f 229/557/529 230/559/530 480/560/530 479/558/529
f 230/559/530 231/561/531 481/562/531 480/560/530
f 231/561/531 232/563/532 482/564/532 481/562/531
f 232/563/532 233/565/533 483/566/533 482/564/532
f 233/565/533 234/567/534 484/568/534 483/566/533
f 234/567/534 235/569/535 485/570/535 484/568/534
f 235/569/535 236/571/536 486/572/536 485/570/535
f 236/571/536 237/573/537 487/574/537 486/572/536
f 237/573/537 238/575/538 488/576/538 487/574/537
f 238/575/538 239/577/539 489/578/539 488/576/538
f 239/577/539 240/579/540 490/580/540 489/578/539
f 240/579/540 241/581/541 491/582/541 490/580/540
f 241/581/541 242/583/542 492/584/542 491/582/541
f 242/583/542 243/585/543 493/586/543 492/584/542
f 243/585/543 244/587/544 494/588/544 493/586/543
f 244/587/544 245/589/545 495/590/545 494/588/544
f 245/589/545 246/591/546 496/592/546 495/590/545
f 246/591/546 247/593/547 497/594/547 496/592/546
f 247/593/547 248/595/548 498/596/548 497/594/547
f 248/595/548 249/597/549 499/598/549 498/596/548
f 249/597/549 250/599/550 500/600/550 499/598/549
f 250/599/550 201/501/501 451/504/501 500/600/550
